# xmcd
#
# Track frame offsets:
#	150
#	17216
#	31537
#	53879
#	75523
#	86587
#	106989
#	128936
#	149023
#	167856
#
# Disc length: 2496 seconds
#
# Revision: 0
# Processed by: cddbd v1.4PL0 Copyright (c) Steve Scherf et al.
# Submitted via: dBpowerAMP V4.0
#
DISCID=7d09be0a
DTITLE=Earl Thomas - Soul'd
DYEAR=1900
DGENRE=Blues
TTITLE0=I'll Love You No Less
TTITLE1=I'm Broken Hearted
TTITLE2=Rather Go Blind
TTITLE3=Stranger than My Flame
TTITLE4=Look at Granny Run Run
TTITLE5=I Won't Be Around
TTITLE6=Little Brother
TTITLE7=First and Last Thing On My Mind
TTITLE8=Take it Like a Man
TTITLE9=Midnight in Memphis
EXTD=
EXTT0=
EXTT1=
EXTT2=
EXTT3=
EXTT4=
EXTT5=
EXTT6=
EXTT7=
EXTT8=
EXTT9=
PLAYORDER=
